<svg
  width="205"
  height="206"
  viewBox="0 0 205 206"
  fill="none"
  xmlns="http://www.w3.org/2000/svg"
>
  <path
    d="M103.01 205.206H102.561C46.3239 205.206 0.570801 159.439 0.570801 103.186V102.736C0.570801 46.483 46.3239 0.716309 102.561 0.716309H103.01C159.247 0.716309 205 46.483 205 102.736V103.186C205 159.439 159.247 205.206 103.01 205.206ZM102.561 7.63807C50.1367 7.63807 7.49053 50.2969 7.49053 102.736V103.186C7.49053 155.625 50.1367 198.284 102.561 198.284H103.01C155.434 198.284 198.08 155.625 198.08 103.186V102.736C198.08 50.2969 155.434 7.63807 103.01 7.63807H102.561Z"
    fill="#5865F2"
  />
  <path
    d="M152.21 57.5993C143.117 53.4255 133.374 50.3522 123.181 48.5941C122.995 48.5595 122.808 48.6426 122.718 48.8156C121.465 51.0444 120.074 53.9585 119.106 56.2427C108.145 54.6022 97.2393 54.6022 86.4999 56.2427C85.5242 53.9031 84.0849 51.0444 82.8255 48.8156C82.7286 48.6495 82.5418 48.5664 82.3619 48.5941C72.1761 50.3522 62.4262 53.4255 53.3337 57.5993C53.2576 57.6339 53.1884 57.6893 53.1399 57.7654C34.6504 85.3971 29.5851 112.35 32.0692 138.972C32.0831 139.103 32.1523 139.228 32.2561 139.304C44.4556 148.267 56.2746 153.708 67.872 157.314C68.0589 157.37 68.2526 157.3 68.3703 157.148C71.1105 153.403 73.5601 149.451 75.6567 145.291C75.7813 145.049 75.6567 144.758 75.4076 144.661C71.5256 143.187 67.8373 141.394 64.2806 139.359C63.9969 139.193 63.9762 138.792 64.2323 138.598C64.9796 138.037 65.7269 137.456 66.4396 136.867C66.5711 136.757 66.751 136.736 66.9032 136.805C90.2434 147.465 115.514 147.465 138.578 136.805C138.73 136.729 138.91 136.757 139.041 136.86C139.754 137.449 140.501 138.037 141.256 138.598C141.512 138.792 141.498 139.193 141.214 139.359C137.664 141.436 133.969 143.194 130.08 144.661C129.824 144.758 129.713 145.049 129.838 145.298C131.983 149.451 134.426 153.397 137.118 157.148C137.228 157.307 137.429 157.377 137.616 157.321C149.269 153.715 161.088 148.274 173.287 139.311C173.391 139.235 173.46 139.11 173.474 138.985C176.449 108.211 168.492 81.4794 152.389 57.7793C152.348 57.7031 152.286 57.6408 152.203 57.6062L152.21 57.5993ZM79.1303 122.761C72.0998 122.761 66.3151 116.31 66.3151 108.384C66.3151 100.459 71.9961 94.0077 79.1303 94.0077C86.2645 94.0077 92.0633 100.521 91.9456 108.384C91.9456 116.31 86.2645 122.761 79.1303 122.761ZM126.523 122.761C119.493 122.761 113.708 116.31 113.708 108.384C113.708 100.459 119.389 94.0077 126.523 94.0077C133.658 94.0077 139.456 100.521 139.339 108.384C139.339 116.31 133.72 122.761 126.523 122.761Z"
    fill="#5865F2"
  />
</svg>
