<svg width="100" height="100" viewBox="0 0 100 100" fill="none" xmlns="http://www.w3.org/2000/svg">
<path d="M95.8334 51.0214C95.8334 47.2505 95.5209 44.5005 94.85 41.6464H50.9333V58.6589H76.7084C76.1917 62.8839 73.3875 69.2505 67.15 73.5297L67.0625 74.0964L80.9459 84.638L81.9042 84.7297C90.7458 76.738 95.8334 64.9714 95.8334 51.0214Z" fill="#4285F4"/>
<path d="M50.9376 95.8325C63.5626 95.8325 74.1626 91.7575 81.9085 84.7283L67.1501 73.5283C63.2001 76.2283 57.9001 78.1116 50.9376 78.1116C45.0687 78.1122 39.3468 76.2754 34.5748 72.8589C29.8028 69.4424 26.2201 64.6177 24.3293 59.0616L23.7793 59.1075L9.3418 70.0575L9.1543 70.5741C16.846 85.545 32.646 95.8325 50.9376 95.8325Z" fill="#34A853"/>
<path d="M24.3334 59.0617C23.3085 56.1495 22.7776 53.0865 22.7625 49.9992C22.7625 46.8409 23.3375 43.7867 24.2667 40.9367L24.2417 40.3242L9.62502 29.1992L9.14585 29.4242C5.87832 35.7908 4.17165 42.8431 4.16669 49.9992C4.16669 57.3826 5.98335 64.3617 9.15419 70.5742L24.3334 59.0617Z" fill="#FBBC05"/>
<path d="M50.9376 21.8875C59.721 21.8875 65.6418 25.6041 69.021 28.7125L82.2168 16.0833C74.1126 8.69996 63.5626 4.16663 50.9376 4.16663C32.6418 4.16663 16.846 14.4541 9.1543 29.425L24.2793 40.9375C26.1863 35.3819 29.78 30.5602 34.559 27.1451C39.338 23.7301 45.0639 21.892 50.9376 21.8875Z" fill="#EB4335"/>
</svg>
