<svg width="164" height="164" viewBox="0 0 164 164" fill="none" xmlns="http://www.w3.org/2000/svg">
<path d="M82.3646 163.527H82.0058C37.1398 163.527 0.637451 127.014 0.637451 82.1352V81.7761C0.637451 36.8969 37.1398 0.383881 82.0058 0.383881H82.3646C127.231 0.383881 163.733 36.8969 163.733 81.7761V82.1352C163.733 127.014 127.231 163.527 82.3646 163.527ZM82.0058 5.90612C40.1817 5.90612 6.15806 39.9397 6.15806 81.7761V82.1352C6.15806 123.972 40.1817 158.005 82.0058 158.005H82.3646C124.189 158.005 158.212 123.972 158.212 82.1352V81.7761C158.212 39.9397 124.189 5.90612 82.3646 5.90612H82.0058Z" fill="#007EBB"/>
<path d="M40.9766 55.5344C38.9008 53.6071 37.8685 51.2216 37.8685 48.3831C37.8685 45.5447 38.9063 43.0542 40.9766 41.1214C43.0523 39.1941 45.7243 38.2277 48.998 38.2277C52.2718 38.2277 54.8389 39.1941 56.9091 41.1214C58.9849 43.0486 60.0171 45.4729 60.0171 48.3831C60.0171 51.2933 58.9793 53.6071 56.9091 55.5344C54.8334 57.4617 52.2 58.428 48.998 58.428C45.7961 58.428 43.0523 57.4617 40.9766 55.5344ZM58.2727 66.5899V125.678H39.6075V66.5899H58.2727Z" fill="#007EBB"/>
<path d="M120.407 72.427C124.476 76.8448 126.507 82.9081 126.507 90.6282V124.634H108.781V93.0249C108.781 89.1318 107.77 86.1055 105.755 83.9518C103.74 81.7981 101.024 80.7158 97.6236 80.7158C94.2229 80.7158 91.5067 81.7926 89.4916 83.9518C87.4766 86.1055 86.4664 89.1318 86.4664 93.0249V124.634H68.6349V66.4243H86.4664V74.1443C88.2716 71.5709 90.7063 69.5388 93.7647 68.0423C96.8231 66.5457 100.262 65.8003 104.088 65.8003C110.901 65.8003 116.344 68.0092 120.407 72.427Z" fill="#007EBB"/>
</svg>
