<svg
  width="164"
  height="164"
  viewBox="0 0 164 164"
  fill="none"
  xmlns="http://www.w3.org/2000/svg"
>
  <path
    d="M82.0514 163.687H81.6926C36.8266 163.687 0.324333 127.174 0.324333 82.2945V81.9355C0.324333 37.0563 36.8266 0.543243 81.6926 0.543243H82.0514C126.917 0.543243 163.42 37.0563 163.42 81.9355V82.2945C163.42 127.174 126.917 163.687 82.0514 163.687ZM81.6926 6.06548C39.8685 6.06548 5.84494 40.099 5.84494 81.9355V82.2945C5.84494 124.131 39.8685 158.164 81.6926 158.164H82.0514C123.876 158.164 157.899 124.131 157.899 82.2945V81.9355C157.899 40.099 123.876 6.06548 82.0514 6.06548H81.6926Z"
    fill="#FF4500"
  />
  <path
    d="M130.694 80.1407C129.385 74.2043 123.964 70.3553 118.587 71.5425C116.754 71.9457 115.175 72.89 113.927 74.1822C106.69 68.925 96.8081 65.4516 85.7724 64.7944L91.0556 42.7938L106.729 46.5434C106.988 50.8287 110.538 54.2249 114.888 54.2249C119.238 54.2249 123.07 50.5581 123.07 46.0409C123.07 41.5237 119.404 37.857 114.888 37.857C111.614 37.857 108.793 39.7842 107.491 42.5674L90.487 38.4976C89.151 38.1773 87.8095 39.0001 87.4838 40.3364L81.6375 64.684C69.3265 64.7502 58.219 68.312 50.2473 74.0165C49.8553 73.652 49.4358 73.3153 48.9776 73.0171C44.3347 70.0516 37.9197 71.8021 34.6515 76.9212C31.3833 82.0458 32.493 88.6007 37.1358 91.5662C37.4118 91.7429 37.6934 91.8976 37.9805 92.0411C37.7928 93.1842 37.6934 94.3495 37.6934 95.5257C37.6934 112.562 57.518 126.373 81.9743 126.373C106.431 126.373 126.255 112.562 126.255 95.5257C126.255 94.3329 126.15 93.1566 125.957 92.0024C129.728 89.8101 131.781 85.0334 130.705 80.1407H130.694ZM59.268 88.3798C59.268 84.4977 62.4147 81.35 66.2957 81.35C70.1767 81.35 73.3235 84.4977 73.3235 88.3798C73.3235 92.262 70.1767 95.4098 66.2957 95.4098C62.4147 95.4098 59.268 92.262 59.268 88.3798ZM98.2988 110.574C96.1402 112.534 90.1779 117.107 81.4498 117.189C81.3726 117.189 81.2896 117.189 81.2124 117.189C72.3683 117.189 66.3288 112.573 64.1261 110.574C63.4195 109.933 63.3698 108.84 64.0102 108.138C64.6506 107.432 65.7437 107.382 66.4448 108.022C68.3604 109.767 73.6547 113.815 81.4167 113.744C88.9634 113.672 94.114 109.723 95.98 108.028C96.6866 107.387 97.7743 107.437 98.4147 108.144C99.0551 108.851 99.0054 109.939 98.2988 110.579V110.574ZM97.4486 95.4098C93.5676 95.4098 90.4208 92.262 90.4208 88.3798C90.4208 84.4977 93.5676 81.35 97.4486 81.35C101.33 81.35 104.476 84.4977 104.476 88.3798C104.476 92.262 101.33 95.4098 97.4486 95.4098Z"
    fill="#FF4500"
  />
</svg>
