<svg
  width="116"
  height="70"
  viewBox="0 0 116 70"
  fill="none"
  xmlns="http://www.w3.org/2000/svg"
>
  <path
    d="M89.4974 41.8786C80.3998 41.8786 74.3603 35.0253 72.6784 32.3699C74.8445 15.578 81.1388 10.2926 89.4974 10.2926C97.8559 10.2926 104.15 16.6908 104.15 26.073C104.15 35.4552 97.754 41.8786 89.4974 41.8786ZM89.4974 0C74.6406 0 66.3585 9.40751 63.9376 19.0932C61.2364 14.1618 59.2487 7.56142 57.6942 1.41618H37.1547V26.25C37.1547 35.2529 32.9244 41.9039 24.6933 41.9039C16.4622 41.9039 11.7223 35.2529 11.7223 26.25L11.8243 1.41618H0V26.25C0 33.5079 2.42091 40.0578 6.82953 44.7616C11.3656 49.6171 17.558 52.1207 24.7188 52.1207C39.0149 52.1207 48.9789 41.474 48.9789 26.25V9.55925C50.4569 15.047 54.0246 25.5925 60.8032 34.8483L54.4578 70H66.4859L70.6652 45.1156C72.0413 46.2283 73.4938 47.2399 75.0483 48.0997C79.0747 50.578 83.7127 51.9436 88.4525 52.0954C88.4525 52.0954 89.1916 52.1207 89.5738 52.1207C104.303 52.1207 116 41.0441 116 26.0983C116 11.1525 104.227 0 89.4974 0Z"
    fill="white"
  />
</svg>
