<svg width="198" height="198" viewBox="0 0 198 198" fill="none" xmlns="http://www.w3.org/2000/svg">
<path d="M197.495 99.1577C197.495 149.05 160.523 190.297 112.493 196.99C108.003 197.613 103.408 197.938 98.744 197.938C93.3604 197.938 88.0738 197.509 82.9255 196.678C35.906 189.106 -0.00738525 148.323 -0.00738525 99.1577C-0.00738525 44.6004 44.2096 0.370361 98.7509 0.370361C153.292 0.370361 197.509 44.6004 197.509 99.1577H197.495Z" fill="#1C1C1B"/>
<path d="M40.044 43.9359L85.5896 104.847L39.7603 154.373H50.0776L90.2051 111.015L122.624 154.373H157.728L109.622 90.0349L152.282 43.9359H141.965L105.013 83.8676L75.1547 43.9359H40.0509H40.044ZM55.212 51.536H71.335L142.546 146.773H126.423L55.212 51.536Z" fill="white"/>
</svg>
