<svg width="100" height="100" viewBox="0 0 100 100" fill="none" xmlns="http://www.w3.org/2000/svg">
<g id="firebase">
<g id="firebase_2">
<path id="Vector" d="M61.4054 36.1175L51.4046 45.4292L42.1213 26.6964L46.917 15.9254C48.1291 13.7769 50.1114 13.7485 51.3235 15.9254L61.4054 36.1175Z" fill="#FFA000"/>
<path id="Vector_2" d="M51.4088 45.4251L14 80.2192L42.1256 26.6964L51.4088 45.4251Z" fill="#F57F17"/>
<path id="Vector_3" d="M72.3712 21.8765C74.163 20.1699 76.0075 20.7455 76.4736 23.1697L86.1988 79.7491L53.9424 99.1143C52.8114 99.7467 49.8116 99.994 49.8116 99.994C49.8116 99.994 47.0833 99.6616 46.0375 99.0859L14 80.2194L72.3712 21.8765Z" fill="#FFCA28"/>
<path id="Vector_4" d="M42.1255 26.6965L14 80.2192L26.5345 1.98839C27.0047 -0.435802 28.379 -0.683086 29.6194 1.46545L42.1255 26.6965Z" fill="#FFA000"/>
</g>
</g>
</svg>
